# xmcd
#
# Track frame offsets: 
#        150
#        17247
#        33824
#        50614
#        69433
#        82625
#        103665
#        122516
#        129536
#        141139
#        152320
#        167782
#        186265
#
# Disc length: 2634 seconds
#
# Revision: 1
# Processed by: cddbd v1.5.2PL0 Copyright (c) Steve Scherf et al.
# Submitted via: ExactAudioCopy v0.99pb4
#
DISCID=9e0a480d
DTITLE=Brozman, Bob - Blues Reflex
DYEAR=2005
DGENRE=Blues
TTITLE0=Dead Cat On The Line
TTITLE1=Rattlesnake Blues
TTITLE2=One Steady Roll
TTITLE3=Death Come Creepin'
TTITLE4=Vieux Kanyár Blues
TTITLE5=Poor Me
TTITLE6=Cypress Grove Blues
TTITLE7=Little Tough Guy Blues
TTITLE8=New Guinea Blues
TTITLE9=It's Mercy We Need
TTITLE10=Mean World Blues
TTITLE11=More Room At The Edge
TTITLE12=Workman's Song
EXTD=
EXTT0=
EXTT1=
EXTT2=
EXTT3=
EXTT4=
EXTT5=
EXTT6=
EXTT7=
EXTT8=
EXTT9=
EXTT10=
EXTT11=
EXTT12=
PLAYORDER=
